# xmcd
#
# Track frame offsets:
# 150
# 16283
# 32293
#
# Disc length: 760 seconds
#
# Revision: 2
# Processed by: cddbd v1.5.1PL2 Copyright (c) Steve Scherf et al.
# Submitted via: Audio-CD-Archiv 4.00.530
#
DISCID=1302f603
DTITLE=Matthias Reim - Ich hab´ mich so auf dich gefreut
DYEAR=2004
DGENRE=blues
TTITLE0=Matthias Reim - Ich hab' mich so auf dich gefreut
TTITLE1=Matthias Reim - Du fehlst mir
TTITLE2=Matthias Reim - Ich hab' mich so auf dich gefreut
EXTD=
EXTT0=
EXTT1=
EXTT2=
PLAYORDER=
